<?xml version="1.0" encoding="UTF-8" standalone="no"?>
<!-- Created with Inkscape (http://www.inkscape.org/) -->

<svg
   version="1.1"
   id="svg1"
   width="400"
   height="400"
   viewBox="0 0 400 400"
   sodipodi:docname="d10-purple.png"
   xmlns:inkscape="http://www.inkscape.org/namespaces/inkscape"
   xmlns:sodipodi="http://sodipodi.sourceforge.net/DTD/sodipodi-0.dtd"
   xmlns="http://www.w3.org/2000/svg"
   xmlns:svg="http://www.w3.org/2000/svg">
  <defs
     id="defs1" />
  <sodipodi:namedview
     id="namedview1"
     pagecolor="#ffffff"
     bordercolor="#666666"
     borderopacity="1.0"
     inkscape:showpageshadow="2"
     inkscape:pageopacity="0.0"
     inkscape:pagecheckerboard="0"
     inkscape:deskcolor="#d1d1d1"
     showgrid="false" />
  <g
     inkscape:groupmode="layer"
     inkscape:label="Image"
     id="g1">
    <path
       style="fill:#76115e;fill-opacity:1"
       d="m 99.648337,322.17703 -90.2248502,-69.66666 -0.0396,-0.84699 -0.0396,-0.84698 31.0000002,12.09708 31,12.09707 58.000003,36.58763 58,36.58763 2.33334,2.03559 2.33333,2.0356 v 19.79335 19.79335 h -1.06891 -1.06892 z m 99.327103,49.68383 0.3689,-20.29544 63.58336,-38.31957 63.58335,-38.31958 20.41665,-5.72345 20.41664,-5.72345 11.2858,-3.14067 11.2858,-3.14067 -2.61913,2.4856 -2.61913,2.4856 -91.29302,64.32486 -91.29302,64.32485 -1.74255,0.66868 -1.74255,0.66868 z m -58.96443,-61.50919 -55.333333,-36.09056 -1.58801,-1.54204 -1.58801,-1.54204 61.284443,-128.62976 61.28444,-128.629763 1.00258,-1.002583 1.00259,-1.002583 55.72221,127.824439 55.72221,127.82445 0.57194,2.47457 0.57194,2.47457 -60.86928,36.66666 -60.86928,36.66667 -0.79055,0.29926 -0.79056,0.29926 z m -98.666673,-54.82049 -31.33333,-13.47141 -0.5416902,-0.4275 -0.54169,-0.4275 -2.884937,-52.3472 -2.88494,-52.3472 2.09329,-2.18658 2.0933,-2.18657 94.4756302,-60.909875 94.47564,-60.909876 1.83078,-0.7025395 1.83079,-0.702539 -6.97308,14.6337735 -6.97309,14.633774 -55.33333,115.446412 -55.333343,115.44643 -1.33333,-0.0351 -1.33333,-0.0351 z M 323.4359,264.9421 321.58131,260.51037 269.60886,141.8437 217.63641,23.177037 l -3.40599,-7.666666 -3.406,-7.6666665 0.92663,0.03191 0.92663,0.03191 90,65.3389435 90,65.338942 2.08228,2.29582 2.08229,2.29581 -2.09309,51.61081 -2.0931,51.61081 -1.32252,1.18942 -1.32253,1.18942 -29.33333,9.40346 -29.33334,9.40347 -3.02692,0.8947 -3.02692,0.8947 z"
       id="path1" />
  </g>
</svg>
